<svg width="830" height="116" viewBox="0 0 830 116" fill="none" xmlns="http://www.w3.org/2000/svg">
<path d="M36 57.996L66 40.6679L96 57.996L66 75.3367L36 57.996Z" fill="#01E8B1" stroke="#171717" stroke-width="3" stroke-miterlimit="10"/>
<path d="M66 40.6688V6.00003L96 57.9968L66 40.6688Z" fill="#01E8B1" stroke="#171717" stroke-width="3" stroke-miterlimit="10"/>
<path d="M36 57.9968L66 6.00003V40.6688L36 57.9968Z" fill="#01E8B1" stroke="#171717" stroke-width="3" stroke-miterlimit="10"/>
<path d="M66 110V75.3376L96 57.9969V92.6656L66 110Z" fill="#01E8B1" stroke="#171717" stroke-width="3" stroke-miterlimit="10"/>
<path d="M36 92.6656L36 57.9969L66 75.3376V110L36 92.6656Z" fill="#01E8B1" stroke="#171717" stroke-width="3" stroke-miterlimit="10"/>
<path d="M96 92.6656V57.9969L126 110L96 92.6656Z" fill="#01E8B1" stroke="#171717" stroke-width="3" stroke-miterlimit="10"/>
<path d="M6 110L36 57.9969L36 92.6656L6 110Z" fill="#01E8B1" stroke="#171717" stroke-width="3" stroke-miterlimit="10"/>
<path d="M66 110L96 92.6656L126 110L66 110Z" fill="#01E8B1" stroke="#171717" stroke-width="3" stroke-miterlimit="10"/>
<path d="M6.00001 110L36 92.6656L66 110L6.00001 110Z" fill="#01E8B1" stroke="#171717" stroke-width="3" stroke-miterlimit="10"/>
<path d="M793.611 56.3079C793.756 55.1696 794.04 54.0562 794.492 52.9744C795.153 51.384 796.052 49.9947 797.186 48.8049C798.321 47.6167 799.647 46.6629 801.164 45.945C802.681 45.2305 804.313 44.8715 806.058 44.8715C807.801 44.8715 809.433 45.2305 810.95 45.945C812.467 46.6629 813.793 47.615 814.928 48.8049C816.062 49.9931 816.959 51.3824 817.622 52.9744C818.073 54.0562 818.358 55.1696 818.503 56.3079H825.881C825.712 54.1775 825.225 52.1369 824.387 50.1942C823.337 47.7647 821.913 45.6509 820.112 43.8479C818.31 42.0482 816.205 40.624 813.793 39.5738C811.381 38.5252 808.793 38 806.031 38C803.304 38 800.734 38.5252 798.322 39.5738C795.909 40.624 793.804 42.0482 792.002 43.8479C790.201 45.6493 788.777 47.7647 787.728 50.1942C786.889 52.1369 786.402 54.1775 786.234 56.3079H793.611Z" fill="white"/>
<path d="M818.482 59.7031C818.332 60.8099 818.055 61.8817 817.62 62.9137C816.957 64.4874 816.059 65.8767 814.926 67.0832C813.791 68.2897 812.465 69.2518 810.947 69.968C809.43 70.6842 807.798 71.0415 806.055 71.0415C804.31 71.0415 802.678 70.6842 801.161 69.968C799.644 69.2518 798.318 68.2897 797.183 67.0832C796.049 65.8784 795.15 64.4874 794.489 62.9137C794.054 61.8817 793.778 60.8099 793.628 59.7031H786.238C786.416 61.8053 786.905 63.8044 787.726 65.6922C788.774 68.1051 790.198 70.2108 792 72.0122C793.801 73.8135 795.907 75.2375 798.32 76.2861C800.732 77.3364 803.301 77.8599 806.028 77.8599C808.79 77.8599 811.376 77.3364 813.791 76.2861C816.204 75.2375 818.309 73.8135 820.109 72.0122C821.91 70.2108 823.334 68.1051 824.385 65.6922C825.206 63.8044 825.694 61.8053 825.872 59.7031H818.482Z" fill="white"/>
<path d="M628.932 70.6457H628.924V45.3665H628.932V38.7593H621.582V77.1482H628.932V70.6457Z" fill="white"/>
<path d="M654.491 49.7985C653.53 47.3689 652.108 45.2983 650.223 43.5834C646.697 40.3678 642.194 38.7593 636.713 38.7593H632.324V45.3683H636.735C638.064 45.3683 639.427 45.5261 640.826 45.8401C642.224 46.1559 643.501 46.7674 644.655 47.6748C645.808 48.5838 646.752 49.8701 647.486 51.5302C648.221 53.192 648.587 55.3506 648.587 58.0078C648.587 60.665 648.219 62.8153 647.486 64.4572C646.752 66.1007 645.816 67.387 644.681 68.3126C643.545 69.2382 642.277 69.8597 640.879 70.1738C639.48 70.4879 638.101 70.6457 636.736 70.6457H632.326V77.1482H636.715C639.437 77.1482 641.943 76.7477 644.228 75.9434C646.514 75.1391 648.513 73.951 650.225 72.3756C652.109 70.664 653.532 68.5917 654.493 66.1605C655.453 63.731 655.933 60.9958 655.933 57.953C655.932 54.9468 655.451 52.228 654.491 49.7985Z" fill="white"/>
<path d="M589.624 56.8762L585.952 49.0774L571.617 77.0951H579.506L589.624 56.8762Z" fill="white"/>
<path d="M591.968 38.7593H591.234L587.912 45.2535L591.597 53.0823L591.601 53.0756L597.055 64.6649H589.532L586.328 71.0646H600.621L603.611 77.095H611.582L591.968 38.7593Z" fill="white"/>
<path d="M473.667 57.7203L481.011 48.8763V38.7593H480.539L461.659 60.8893L442.831 38.7593H442.359V48.8663L449.703 57.712V57.6903L461.659 72.1131L473.667 57.6903V57.7203Z" fill="#01E8B1"/>
<path d="M442.359 54.1809V77.0952H449.703V63.0266L442.359 54.1809Z" fill="#01E8B1"/>
<path d="M473.664 63.0366V77.0953H481.008V54.1909L473.664 63.0366Z" fill="#01E8B1"/>
<path d="M414.196 71.0976C413.82 71.0312 413.443 70.9647 413.034 70.8566C411.967 70.5775 410.97 70.0707 410.045 69.3379C409.117 68.605 408.34 67.6096 407.711 66.3533C407.082 65.0953 406.768 63.5082 406.768 61.5872V38.7593H399.426V61.6255C399.426 64.0733 399.82 66.2934 400.606 68.2859C401.393 70.2783 402.502 71.9751 403.936 73.3727C405.37 74.7719 407.1 75.8554 409.129 76.6248C410.683 77.2148 412.374 77.5736 414.196 77.7115V71.0976Z" fill="#01E8B1"/>
<path d="M425.02 38.761V61.5891C425.02 63.5084 424.706 65.097 424.076 66.355C423.446 67.6113 422.667 68.6067 421.741 69.3396C420.814 70.0724 419.818 70.5794 418.752 70.8585C418.343 70.9649 417.965 71.0329 417.59 71.0993V77.7134C419.441 77.5772 421.149 77.2181 422.71 76.6265C424.737 75.8571 426.467 74.7736 427.903 73.3744C429.337 71.9751 430.437 70.2802 431.207 68.2878C431.976 66.2953 432.36 64.075 432.36 61.6272V38.761H425.02Z" fill="#01E8B1"/>
<path d="M365.505 59.1063H365.48V45.2618H365.505V38.7593H358.137V77.1482H365.48V65.7151H365.505V59.1063Z" fill="#01E8B1"/>
<path d="M378.261 65.3015C379.046 65.1419 379.804 64.949 380.506 64.6931C382.376 64.0118 383.923 63.0662 385.148 61.8614C386.371 60.655 387.298 59.2491 387.928 57.6388C388.556 56.0319 388.872 54.282 388.872 52.3942C388.872 50.5047 388.513 48.7316 387.797 47.0715C387.079 45.4113 386.108 43.9689 384.885 42.7442C383.661 41.5211 382.22 40.5506 380.558 39.8344C378.896 39.1182 377.123 38.7593 375.235 38.7593H368.902V45.2618H374.449C375.603 45.2618 376.616 45.4729 377.492 45.8917C378.364 46.3121 379.101 46.8539 379.694 47.5169C380.287 48.1817 380.744 48.9426 381.058 49.7985C381.372 50.6559 381.53 51.5219 381.53 52.396C381.53 53.2701 381.407 54.1091 381.163 54.9134C380.919 55.7177 380.541 56.4341 380.036 57.0639C379.529 57.6921 378.873 58.1906 378.07 58.5596C377.266 58.9252 376.322 59.1095 375.239 59.1095H368.906V65.7185H368.924H368.921L379.835 77.1516H389.425L378.261 65.3015Z" fill="#01E8B1"/>
<path d="M752.314 59.1063H752.289V45.2618H752.314V38.7593H744.945V77.1482H752.289V65.7151H752.314V59.1063Z" fill="white"/>
<path d="M765.07 65.3015C765.854 65.1419 766.612 64.949 767.315 64.6931C769.185 64.0118 770.732 63.0662 771.957 61.8614C773.18 60.655 774.107 59.2491 774.737 57.6388C775.365 56.0319 775.681 54.282 775.681 52.3942C775.681 50.5047 775.322 48.7316 774.605 47.0715C773.888 45.4113 772.917 43.9689 771.694 42.7442C770.469 41.5211 769.028 40.5506 767.367 39.8344C765.705 39.1182 763.932 38.7593 762.044 38.7593H755.711V45.2618H761.258C762.411 45.2618 763.425 45.4729 764.301 45.8917C765.173 46.3121 765.909 46.8539 766.503 47.5169C767.096 48.1817 767.553 48.9426 767.867 49.7985C768.181 50.6559 768.339 51.5219 768.339 52.396C768.339 53.2701 768.216 54.1091 767.972 54.9134C767.727 55.7177 767.35 56.4341 766.845 57.0639C766.338 57.6921 765.682 58.1906 764.879 58.5596C764.075 58.9252 763.131 59.1095 762.047 59.1095H755.714V65.7185H755.732H755.729L766.644 77.1516H776.234L765.07 65.3015Z" fill="white"/>
<path d="M537.696 59.1063H537.672V45.2618H537.696V38.7593H530.328V77.1482H537.672V65.7151H537.696V59.1063Z" fill="white"/>
<path d="M550.453 65.3015C551.237 65.1419 551.995 64.949 552.698 64.6931C554.567 64.0118 556.115 63.0662 557.339 61.8614C558.562 60.655 559.49 59.2491 560.12 57.6388C560.748 56.0319 561.063 54.282 561.063 52.3942C561.063 50.5047 560.705 48.7316 559.988 47.0715C559.27 45.4113 558.3 43.9689 557.077 42.7442C555.852 41.5211 554.411 40.5506 552.749 39.8344C551.088 39.1182 549.314 38.7593 547.427 38.7593H541.094V45.2618H546.641C547.794 45.2618 548.808 45.4729 549.683 45.8917C550.556 46.3121 551.292 46.8539 551.885 47.5169C552.479 48.1817 552.936 48.9426 553.25 49.7985C553.564 50.6559 553.722 51.5219 553.722 52.396C553.722 53.2701 553.599 54.1091 553.354 54.9134C553.11 55.7177 552.733 56.4341 552.228 57.0639C551.721 57.6921 551.064 58.1906 550.262 58.5596C549.457 58.9252 548.514 59.1095 547.43 59.1095H541.097V65.7185H541.115H541.112L552.027 77.1516H561.617L550.453 65.3015Z" fill="white"/>
<path d="M290.242 71.1002C289.124 70.9423 288.05 70.6382 287.033 70.1579C285.513 69.4417 284.191 68.4879 283.073 67.2997C281.953 66.1115 281.062 64.7305 280.398 63.1568C279.733 61.5831 279.401 59.9231 279.401 58.1749C279.401 56.4615 279.733 54.8097 280.398 53.2177C281.061 51.6273 281.953 50.238 283.073 49.0482C284.191 47.86 285.511 46.9079 287.033 46.19C288.05 45.7114 289.124 45.4056 290.242 45.2477V38.3796C288.14 38.5541 286.132 39.041 284.226 39.8702C281.813 40.9188 279.708 42.3447 277.907 44.1444C276.105 45.9458 274.681 48.0512 273.632 50.4641C272.584 52.877 272.059 55.4462 272.059 58.1732C272.059 60.9002 272.582 63.4692 273.632 65.8821C274.681 68.295 276.105 70.4005 277.907 72.2019C279.706 74.0033 281.813 75.4274 284.226 76.476C286.132 77.3053 288.14 77.7921 290.242 77.9666V71.1002Z" fill="#01E8B1"/>
<path d="M293.637 45.2576C294.125 45.3357 294.609 45.4406 295.082 45.5885C296.096 45.9042 297.057 46.3412 297.967 46.9012C298.876 47.4612 299.707 48.106 300.458 48.8405C301.181 49.5467 301.809 50.3045 302.354 51.1072L308.822 47.6373C308.076 46.4392 307.207 45.3258 306.201 44.3054C304.977 43.0657 303.622 41.999 302.137 41.1066C300.651 40.2142 299.042 39.5245 297.312 39.0343C296.118 38.6969 294.89 38.4843 293.637 38.3796V45.2576Z" fill="#01E8B1"/>
<path d="M300.458 67.4839C299.707 68.235 298.876 68.8916 297.967 69.4516C297.058 70.0116 296.096 70.4469 295.082 70.7626C294.609 70.9105 294.125 71.0152 293.637 71.0933V77.9731C294.89 77.8684 296.116 77.6558 297.312 77.3185C299.042 76.8299 300.651 76.1385 302.137 75.2478C303.622 74.3554 304.977 73.2903 306.201 72.0489C307.207 71.0303 308.074 69.9052 308.819 68.6854L302.343 65.2107C301.801 66.005 301.176 66.7643 300.458 67.4839Z" fill="#01E8B1"/>
<path d="M318.82 38.7593V45.2618H329.833V45.2701H337.176V45.2618H348.138V38.7593H318.82Z" fill="#01E8B1"/>
<path d="M337.178 48.6653H329.836V77.1465H337.178V48.6653Z" fill="#01E8B1"/>
<path d="M491.012 38.7593V45.2618H502.025V45.2701H509.368V45.2618H520.329V38.7593H491.012Z" fill="white"/>
<path d="M509.369 48.6653H502.027V77.1465H509.369V48.6653Z" fill="white"/>
<path d="M241.137 70.5394H241.129V61.5192H241.137V54.8587H241.129V45.2618H241.137V38.7593H233.785V77.1482H241.137V70.5394Z" fill="#01E8B1"/>
<path d="M262.06 54.8586H244.535V61.5192H262.06V54.8586Z" fill="#01E8B1"/>
<path d="M262.057 38.7593H244.535V45.2618H262.057V38.7593Z" fill="#01E8B1"/>
<path d="M262.057 70.5393H244.535V77.1481H262.057V70.5393Z" fill="#01E8B1"/>
<path d="M673.285 70.5394H673.277V61.5192H673.285V54.8587H673.277V45.2618H673.285V38.7593H665.934V77.1482H673.285V70.5394Z" fill="white"/>
<path d="M694.209 54.8586H676.684V61.5192H694.209V54.8586Z" fill="white"/>
<path d="M694.205 38.7593H676.684V45.2618H694.205V38.7593Z" fill="white"/>
<path d="M694.205 70.5393H676.684V77.1481H694.205V70.5393Z" fill="white"/>
<path d="M200.415 59.1063H200.389V45.2618H200.415V38.7593H193.047V77.1482H200.389V65.7151H200.415V59.1063Z" fill="#01E8B1"/>
<path d="M222.707 47.0715C221.989 45.4113 221.019 43.9689 219.795 42.7442C218.571 41.5211 217.13 40.5506 215.468 39.8344C213.806 39.1182 212.033 38.7593 210.145 38.7593H203.812V45.2618H209.359C210.513 45.2618 211.526 45.4729 212.402 45.8917C213.275 46.3121 214.011 46.8539 214.604 47.5169C215.199 48.1817 215.654 48.9426 215.968 49.7985C216.282 50.6559 216.44 51.5219 216.44 52.396C216.44 53.2701 216.317 54.1091 216.075 54.9134C215.83 55.7177 215.453 56.4341 214.948 57.0639C214.441 57.6921 213.785 58.1906 212.981 58.5596C212.176 58.9252 211.232 59.1095 210.149 59.1095H203.816V65.7185H208.942C211.388 65.7185 213.549 65.3779 215.42 64.6965C217.29 64.0152 218.837 63.0697 220.061 61.8649C221.284 60.6584 222.212 59.2525 222.842 57.6423C223.47 56.0353 223.785 54.2854 223.785 52.3976C223.78 50.5065 223.422 48.7316 222.707 47.0715Z" fill="#01E8B1"/>
<path d="M711.575 59.1063H711.549V45.2618H711.575V38.7593H704.207V77.1482H711.549V65.7151H711.575V59.1063Z" fill="white"/>
<path d="M733.867 47.0715C733.149 45.4113 732.179 43.9689 730.956 42.7442C729.731 41.5211 728.29 40.5506 726.628 39.8344C724.967 39.1182 723.193 38.7593 721.306 38.7593H714.973V45.2618H720.52C721.673 45.2618 722.687 45.4729 723.562 45.8917C724.435 46.3121 725.171 46.8539 725.764 47.5169C726.359 48.1817 726.814 48.9426 727.129 49.7985C727.443 50.6559 727.601 51.5219 727.601 52.396C727.601 53.2701 727.477 54.1091 727.235 54.9134C726.991 55.7177 726.613 56.4341 726.108 57.0639C725.601 57.6921 724.945 58.1906 724.141 58.5596C723.336 58.9252 722.393 59.1095 721.309 59.1095H714.976V65.7185H720.102C722.549 65.7185 724.709 65.3779 726.58 64.6965C728.45 64.0152 729.997 63.0697 731.222 61.8649C732.445 60.6584 733.372 59.2525 734.002 57.6423C734.63 56.0353 734.946 54.2854 734.946 52.3976C734.941 50.5065 734.582 48.7316 733.867 47.0715Z" fill="white"/>
<path d="M169.223 45.3707C170.148 45.5369 171.052 45.7878 171.93 46.1351C173.608 46.7998 175.356 47.7619 177.174 49.0199L181.266 43.2503C180.076 42.4111 178.966 41.6866 177.935 41.0751C176.905 40.4635 175.847 39.9566 174.763 39.5545C173.68 39.1523 172.508 38.8466 171.248 38.6355C170.617 38.5308 169.942 38.4526 169.223 38.3994V45.3707Z" fill="#01E8B1"/>
<path d="M182.286 61.894C181.779 60.6892 181.114 59.6756 180.293 58.853C179.471 58.0304 178.537 57.3573 177.488 56.8322C176.44 56.3087 175.381 55.8883 174.316 55.5742C173.249 55.2602 172.219 55.0159 171.222 54.8397C170.225 54.6652 169.361 54.4907 168.626 54.3145C167.646 54.0702 166.632 53.8259 165.583 53.58C164.535 53.3357 163.573 53.0399 162.7 52.6892C161.826 52.3403 161.108 51.9017 160.55 51.3782C159.99 50.8531 159.711 50.2067 159.711 49.4373C159.711 48.6695 159.947 48.0131 160.419 47.4714C160.89 46.9297 161.485 46.4842 162.202 46.1336C162.918 45.7846 163.679 45.5303 164.483 45.3741C164.967 45.2794 165.409 45.2228 165.828 45.1846V38.3796C164.565 38.4411 163.275 38.5758 161.939 38.845C160.209 39.1956 158.635 39.7972 157.219 40.6547C155.804 41.5121 154.64 42.682 153.731 44.1693C152.822 45.6566 152.367 47.5178 152.367 49.7545C152.367 51.2934 152.621 52.6312 153.128 53.7678C153.635 54.9045 154.308 55.8832 155.147 56.7042C155.987 57.5267 156.93 58.2082 157.979 58.7499C159.029 59.2917 160.095 59.7286 161.178 60.061C162.261 60.3934 163.31 60.6559 164.324 60.8487C165.337 61.0398 166.228 61.2078 166.998 61.3457C168.151 61.5567 169.261 61.7842 170.328 62.0269C171.393 62.2711 172.32 62.5686 173.106 62.9176C173.894 63.2682 174.522 63.7137 174.996 64.2554C175.468 64.7972 175.704 65.4535 175.704 66.2229C175.704 66.8162 175.546 67.4211 175.23 68.0326C174.916 68.6441 174.444 69.1859 173.814 69.6579C173.186 70.1298 172.415 70.5153 171.508 70.8111C170.831 71.0338 170.05 71.1435 169.219 71.2V78.0001C171.091 77.9486 172.82 77.7191 174.391 77.287C176.174 76.7985 177.713 76.0723 179.006 75.1118C180.299 74.1497 181.296 72.9349 181.995 71.4675C182.695 70.0002 183.045 68.2686 183.045 66.2745C183.047 64.5611 182.791 63.1005 182.286 61.894Z" fill="#01E8B1"/>
<path d="M165.826 71.0207C164.495 70.7931 163.195 70.4059 161.937 69.8143C159.893 68.8538 157.908 67.7088 155.985 66.3794L152 72.2539C153.188 73.0931 154.341 73.8624 155.462 74.5603C156.58 75.26 157.77 75.8632 159.028 76.37C160.286 76.8769 161.675 77.2792 163.197 77.575C164.006 77.7328 164.886 77.8459 165.826 77.9206V71.0207Z" fill="#01E8B1"/>
</svg>
